<?xml version="1.0" encoding="utf-8"?>
<!-- Generator: Adobe Illustrator 25.4.1, SVG Export Plug-In . SVG Version: 6.00 Build 0)  -->
<svg version="1.1" id="Layer_1" xmlns="http://www.w3.org/2000/svg" xmlns:xlink="http://www.w3.org/1999/xlink" x="0px" y="0px"
	 viewBox="0 0 52 8" style="enable-background:new 0 0 52 8;" xml:space="preserve">
<style type="text/css">
	.st0{fill-rule:evenodd;clip-rule:evenodd;fill:none;}
	.st1{fill:#EE4C9B;}
	.st2{fill:#F070AA;}
	.st3{fill:#FAD4E5;}
	.st4{fill:#F098C1;}
	.st5{fill:#F8BBD5;}
	.st6{fill:#EE2E71;}
	.st7{fill:#74797A;}
	.st8{fill:#ED3071;}
	.st9{fill:#9DA0A2;}
</style>
<g>
	<rect class="st0" width="52" height="8"/>
	<g>
		<g>
			<path class="st1" d="M3.4,2.2c0.2,0,0.3,0.1,0.3,0.3c0,0.2-0.1,0.3-0.3,0.3c-0.2,0-0.3-0.1-0.3-0.3C3.1,2.3,3.3,2.2,3.4,2.2z"/>
			<path class="st1" d="M1.7,3.7c0-0.2,0.1-0.3,0.3-0.3c0.2,0,0.3,0.1,0.3,0.3C2.3,3.9,2.1,4,2,4C1.8,4,1.7,3.9,1.7,3.7z"/>
			<path class="st2" d="M2.1,2.1c0.1,0,0.2,0.1,0.2,0.2c0,0.1-0.1,0.2-0.2,0.2C2,2.6,1.9,2.5,1.9,2.4C1.9,2.2,2,2.1,2.1,2.1z"/>
			<path class="st2" d="M3.4,1.6c0.1,0,0.2,0.1,0.2,0.2C3.6,1.9,3.5,2,3.4,2C3.3,2,3.2,1.9,3.2,1.8C3.2,1.7,3.3,1.6,3.4,1.6z"/>
			<path class="st2" d="M1.4,3.4c0,0.1-0.1,0.2-0.2,0.2C1.1,3.6,1,3.5,1,3.4c0-0.1,0.1-0.2,0.2-0.2C1.3,3.2,1.4,3.3,1.4,3.4z"/>
			<path class="st3" d="M1.9,0.5c0.1,0,0.1,0.1,0.1,0.1c0,0.1-0.1,0.1-0.1,0.1c-0.1,0-0.1-0.1-0.1-0.1C1.8,0.5,1.9,0.5,1.9,0.5z"/>
			<path class="st4" d="M1.8,1.7c0,0.1-0.1,0.1-0.1,0.1c-0.1,0-0.1-0.1-0.1-0.1c0-0.1,0.1-0.1,0.1-0.1C1.7,1.6,1.8,1.7,1.8,1.7z"/>
			<path class="st5" d="M3,1C3,1,2.9,1.1,2.9,1.1C2.8,1.1,2.8,1,2.8,0.9c0-0.1,0.1-0.1,0.1-0.1C3,0.8,3,0.9,3,1z"/>
			<path class="st5" d="M2.3,1.3c0,0.1-0.1,0.1-0.1,0.1C2.1,1.4,2,1.3,2,1.3c0-0.1,0.1-0.1,0.1-0.1C2.2,1.1,2.3,1.2,2.3,1.3z"/>
			<path class="st4" d="M1.3,2.6c-0.1,0-0.1-0.1-0.1-0.1c0-0.1,0.1-0.1,0.1-0.1c0.1,0,0.1,0.1,0.1,0.1C1.5,2.6,1.4,2.6,1.3,2.6z"/>
			<path class="st4" d="M2.9,1.5c0,0.1-0.1,0.1-0.1,0.1c-0.1,0-0.1-0.1-0.1-0.1c0-0.1,0.1-0.1,0.1-0.1C2.8,1.4,2.9,1.4,2.9,1.5z"/>
			<path class="st6" d="M6.6,4.3c0-0.1,0-0.2-0.1-0.4c0-0.2-0.1-0.3-0.2-0.4C6.2,3.4,6.1,3.2,6,3.1C5.9,3,5.8,2.9,5.6,2.8
				C5.5,2.7,5.4,2.6,5.2,2.6C5,2.5,4.8,2.4,4.6,2.4c-0.1,0-0.1,0-0.1-0.1C4.5,2.1,4.3,2,4.1,2c-0.2,0-0.3,0.2-0.3,0.4c0,0,0,0,0,0.1
				c0,0.2-0.2,0.4-0.4,0.4c-0.2,0-0.3,0-0.4-0.2C3,2.7,2.9,2.6,2.7,2.5c-0.2,0-0.5,0.1-0.6,0.3C2.1,3.1,2.1,3.3,2.3,3.5
				c0.2,0.1,0.2,0.4,0.1,0.6C2.3,4.2,2.1,4.3,2,4.3c-0.2,0-0.3,0.1-0.4,0.2c-0.1,0.2,0,0.3,0.1,0.4C1.8,5,1.9,5,1.9,5C2,5,2,5,2,5.1
				c0,0.2,0.1,0.3,0.2,0.5C2.3,5.8,2.4,6,2.6,6.2c0.2,0.2,0.4,0.3,0.6,0.5c0.2,0.1,0.3,0.2,0.5,0.2C3.8,6.9,4,7,4.3,6.9
				c0.2,0,0.3,0,0.5-0.1c0.2,0,0.4-0.1,0.5-0.2c0.1-0.1,0.2-0.1,0.3-0.2c0.1-0.1,0.2-0.1,0.2-0.2C6,6.2,6.1,6.1,6.2,5.9
				c0.1-0.1,0.1-0.2,0.2-0.3c0.1-0.2,0.2-0.4,0.2-0.5c0-0.1,0-0.3,0.1-0.4C6.6,4.6,6.6,4.5,6.6,4.3z M5.5,6C5.3,6.1,5.1,6.1,4.8,6.1
				C4.8,6,4.7,6,4.6,5.9C4.5,5.8,4.4,5.7,4.3,5.6C4.1,5.4,4,5.3,3.8,5.1c0,0,0,0,0,0c0,0.1,0,0.3,0,0.4c0,0.2,0,0.4,0,0.5
				c0,0.1,0,0-0.1,0c-0.1,0-0.2,0-0.3-0.1C3.3,5.9,3.2,5.8,3.2,5.6c0-0.1,0-0.2,0-0.3c0-0.3,0-0.5,0-0.8c0-0.2,0-0.2,0.2-0.2
				c0.3,0,0.6,0,0.9,0c0,0,0.1,0,0.1,0c0.1,0,0.2-0.1,0.2-0.2c0-0.1,0-0.2-0.1-0.3c0,0,0,0,0,0c-0.1,0-0.3,0-0.4,0
				c-0.1,0-0.3,0-0.4,0C3.4,3.8,3.2,3.6,3.2,3.3c0-0.1,0-0.1,0-0.1c0.4,0,0.8,0,1.2,0c0.2,0,0.4,0.1,0.5,0.2
				c0.1,0.1,0.2,0.2,0.3,0.4c0.1,0.3,0,0.6-0.1,0.8C4.9,4.8,4.8,4.9,4.6,5c0,0,0,0,0,0C4.6,5,4.6,5,4.6,5c0,0,0,0,0,0
				c0,0,0.1,0,0.1,0C4.9,5.4,5.2,5.6,5.5,6C5.5,5.9,5.5,5.9,5.5,6z"/>
		</g>
		<g>
			<g>
				<path class="st7" d="M29.5,2.1c0,0.1,0,0.2-0.1,0.3c0,0.1-0.1,0.2-0.1,0.2c-0.1,0.1-0.1,0.1-0.2,0.1c-0.1,0-0.2,0.1-0.3,0.1
					c-0.1,0-0.2,0-0.3-0.1c-0.1,0-0.2-0.1-0.2-0.1c-0.1-0.1-0.1-0.1-0.1-0.2s-0.1-0.2-0.1-0.3c0-0.1,0-0.2,0.1-0.3
					c0-0.1,0.1-0.2,0.1-0.2c0.1-0.1,0.1-0.1,0.2-0.1c0.1,0,0.2-0.1,0.3-0.1c0.1,0,0.2,0,0.3,0.1c0.1,0,0.2,0.1,0.2,0.1
					c0.1,0.1,0.1,0.1,0.1,0.2C29.5,2,29.5,2,29.5,2.1z M29.4,2.2c0-0.1,0-0.2,0-0.2c0-0.1-0.1-0.1-0.1-0.2c0,0-0.1-0.1-0.2-0.1
					s-0.1,0-0.2,0c-0.1,0-0.2,0-0.2,0c-0.1,0-0.1,0.1-0.2,0.1c0,0-0.1,0.1-0.1,0.2c0,0.1,0,0.1,0,0.2c0,0.1,0,0.2,0,0.2
					c0,0.1,0.1,0.1,0.1,0.2c0,0,0.1,0.1,0.2,0.1c0.1,0,0.1,0,0.2,0c0.1,0,0.2,0,0.2,0c0.1,0,0.1-0.1,0.2-0.1c0,0,0.1-0.1,0.1-0.2
					C29.3,2.3,29.4,2.2,29.4,2.2z M29.1,2.5C29.1,2.5,29.1,2.5,29.1,2.5C29.1,2.5,29.1,2.5,29.1,2.5C29.1,2.5,29.1,2.5,29.1,2.5
					C29.1,2.5,29.1,2.5,29.1,2.5c-0.1,0-0.1,0-0.1,0c0,0,0,0,0,0c0,0,0,0,0,0c0,0,0,0,0,0l0-0.1c0,0,0-0.1-0.1-0.1c0,0,0,0-0.1,0h0
					v0.2c0,0,0,0,0,0c0,0,0,0-0.1,0c0,0-0.1,0-0.1,0c0,0,0,0,0,0V1.8c0,0,0,0,0-0.1c0,0,0,0,0.1,0h0.2c0,0,0.1,0,0.1,0
					c0,0,0.1,0,0.1,0s0,0,0.1,0.1c0,0,0,0.1,0,0.1c0,0.1,0,0.1,0,0.1S29,2.2,28.9,2.2c0,0,0.1,0,0.1,0c0,0,0,0.1,0.1,0.1L29.1,2.5
					C29.1,2.5,29.1,2.5,29.1,2.5z M28.9,2C28.9,2,28.9,2,28.9,2C28.9,1.9,28.9,1.9,28.9,2C28.9,1.9,28.9,1.9,28.9,2
					c-0.1-0.1-0.1-0.1-0.1-0.1h-0.1v0.2h0.1C28.8,2.1,28.9,2.1,28.9,2C28.9,2,28.9,2,28.9,2z"/>
				<g>
					<path class="st7" d="M9.1,1.9c0.1,0,0.3,0,0.4,0.1c0.1,0,0.2,0.1,0.3,0.2L9.4,2.7c0,0-0.1-0.1-0.1-0.1c0,0-0.1,0-0.1,0
						c-0.1,0-0.2,0-0.3,0c-0.1,0-0.1,0.1-0.2,0.1C8.6,2.8,8.6,2.9,8.5,3c0,0.1-0.1,0.2-0.1,0.3v1.5H7.8V2.4H7.4l0.3-0.5h0.1h0.4h0.3
						v0.2c0,0,0.1,0,0.2-0.1C8.7,2,8.7,2,8.8,2c0.1,0,0.1,0,0.2,0C9,1.9,9.1,1.9,9.1,1.9z"/>
					<path class="st7" d="M12.2,3.6c0,0.2-0.1,0.3-0.2,0.4c-0.1,0.1-0.2,0.3-0.3,0.4c-0.1,0.1-0.3,0.2-0.4,0.2
						c-0.2,0.1-0.3,0.1-0.5,0.1c-0.2,0-0.4,0-0.5-0.1C10.1,4.5,10,4.4,9.8,4.3C9.7,4.2,9.6,4,9.5,3.8C9.5,3.7,9.4,3.5,9.4,3.3
						s0-0.4,0.1-0.5c0.1-0.2,0.2-0.3,0.3-0.4C10,2.2,10.1,2.1,10.3,2c0.2-0.1,0.4-0.1,0.5-0.1c0.1,0,0.3,0,0.4,0.1
						c0.1,0,0.3,0.1,0.4,0.2c0.1,0.1,0.2,0.2,0.3,0.3c0.1,0.1,0.2,0.2,0.2,0.3c0,0,0,0.1,0,0.1l-0.1,0.1l-0.2,0.4H11l0.3-0.6
						c-0.1-0.1-0.1-0.1-0.2-0.1c-0.1,0-0.2,0-0.3,0c-0.1,0-0.2,0-0.3,0.1c-0.1,0-0.2,0.1-0.2,0.2c-0.1,0.1-0.1,0.1-0.2,0.2
						c0,0.1-0.1,0.2-0.1,0.3c0,0.1,0,0.2,0.1,0.3c0,0.1,0.1,0.2,0.2,0.2C10.4,3.9,10.4,4,10.5,4c0.1,0,0.2,0.1,0.3,0.1
						c0.2,0,0.3,0,0.4-0.1c0.1-0.1,0.2-0.2,0.3-0.3H12.2z"/>
					<path class="st8" d="M13.6,1.9c0.2,0,0.4,0,0.5,0.1c0.2,0.1,0.3,0.2,0.4,0.3c0.1,0.1,0.2,0.3,0.3,0.4C15,2.9,15,3.1,15,3.3
						c0,0.2,0,0.4-0.1,0.5c-0.1,0.2-0.2,0.3-0.3,0.4c-0.1,0.1-0.3,0.2-0.4,0.3c-0.2,0.1-0.4,0.1-0.5,0.1c-0.2,0-0.4,0-0.5-0.1
						c-0.2-0.1-0.3-0.2-0.4-0.3c-0.1-0.1-0.2-0.3-0.3-0.4c-0.1-0.2-0.1-0.3-0.1-0.5V1.5h0.7v0.7C13,2.1,13.1,2,13.2,2
						C13.4,1.9,13.5,1.9,13.6,1.9z M13.6,4.1c0.1,0,0.2,0,0.3-0.1c0.1,0,0.2-0.1,0.2-0.2c0.1-0.1,0.1-0.1,0.2-0.2
						c0-0.1,0.1-0.2,0.1-0.3c0-0.1,0-0.2-0.1-0.3c0-0.1-0.1-0.2-0.2-0.2c-0.1-0.1-0.1-0.1-0.2-0.2c-0.1,0-0.2-0.1-0.3-0.1
						c-0.1,0-0.2,0-0.3,0.1c-0.1,0-0.2,0.1-0.2,0.2C13,2.9,13,2.9,12.9,3c0,0.1-0.1,0.2-0.1,0.3c0,0.1,0,0.2,0.1,0.3
						c0,0.1,0.1,0.2,0.2,0.2C13.2,3.9,13.3,4,13.3,4C13.4,4,13.5,4.1,13.6,4.1z"/>
					<path class="st8" d="M16.8,1.9c0.1,0,0.3,0,0.4,0.1c0.1,0,0.2,0.1,0.3,0.2L17,2.7c0,0-0.1-0.1-0.1-0.1c0,0-0.1,0-0.1,0
						c-0.1,0-0.2,0-0.3,0c-0.1,0-0.1,0.1-0.2,0.1c-0.1,0.1-0.1,0.1-0.1,0.2c0,0.1-0.1,0.2-0.1,0.3v1.5h-0.7V2.4h-0.4l0.3-0.5h0.1
						h0.4h0.3v0.2c0,0,0.1,0,0.2-0.1c0.1,0,0.1,0,0.2-0.1s0.1,0,0.2,0C16.7,1.9,16.7,1.9,16.8,1.9z"/>
					<path class="st8" d="M19.9,3.3v1.4h-0.7V4.5c-0.1,0.1-0.2,0.1-0.4,0.2c-0.1,0-0.3,0.1-0.4,0.1c-0.2,0-0.4,0-0.5-0.1
						c-0.2-0.1-0.3-0.2-0.4-0.3c-0.1-0.1-0.2-0.3-0.3-0.4C17.1,3.7,17,3.5,17,3.3c0-0.2,0-0.4,0.1-0.5c0.1-0.2,0.2-0.3,0.3-0.4
						c0.1-0.1,0.3-0.2,0.4-0.3c0.2-0.1,0.4-0.1,0.5-0.1c0.2,0,0.4,0,0.5,0.1c0.2,0.1,0.3,0.2,0.4,0.3c0.1,0.1,0.2,0.3,0.3,0.4
						S19.9,3.1,19.9,3.3L19.9,3.3z M18.5,4.1c0.1,0,0.2,0,0.3-0.1c0.1,0,0.2-0.1,0.2-0.2c0.1-0.1,0.1-0.1,0.2-0.2
						c0-0.1,0.1-0.2,0.1-0.3c0-0.1,0-0.2-0.1-0.3c0-0.1-0.1-0.2-0.2-0.2c-0.1-0.1-0.1-0.1-0.2-0.2c-0.1,0-0.2-0.1-0.3-0.1
						c-0.1,0-0.2,0-0.3,0.1c-0.1,0-0.2,0.1-0.2,0.2c-0.1,0.1-0.1,0.1-0.2,0.2c0,0.1-0.1,0.2-0.1,0.3c0,0.1,0,0.2,0.1,0.3
						c0,0.1,0.1,0.2,0.2,0.2C18,3.9,18.1,4,18.2,4C18.2,4,18.3,4.1,18.5,4.1z"/>
					<path class="st8" d="M21.2,1.9c0.2,0,0.3,0,0.5,0.1s0.3,0.1,0.4,0.3c0.1,0.1,0.2,0.2,0.3,0.4c0.1,0.1,0.1,0.3,0.1,0.5v1.6h-0.7
						V3.1c0-0.1,0-0.1,0-0.2c0-0.1-0.1-0.1-0.1-0.2c0-0.1-0.1-0.1-0.2-0.1c-0.1,0-0.1,0-0.2,0c-0.1,0-0.2,0-0.2,0
						c-0.1,0-0.1,0.1-0.2,0.1c-0.1,0.1-0.1,0.1-0.1,0.2c0,0.1,0,0.1,0,0.2v0.1v1.5H20V3.2V3.1V2.4h-0.4l0.3-0.5H20h0.4h0.3v0.1
						C20.8,2,20.8,2,20.9,2C21,1.9,21.1,1.9,21.2,1.9z"/>
					<path class="st8" d="M25.3,1.5v1.8c0,0.2,0,0.4-0.1,0.5c-0.1,0.2-0.2,0.3-0.3,0.4c-0.1,0.1-0.3,0.2-0.4,0.3
						c-0.2,0.1-0.4,0.1-0.5,0.1c-0.2,0-0.4,0-0.5-0.1c-0.2-0.1-0.3-0.2-0.4-0.3c-0.1-0.1-0.2-0.3-0.3-0.4c-0.1-0.2-0.1-0.3-0.1-0.5
						c0-0.2,0-0.4,0.1-0.5c0.1-0.2,0.2-0.3,0.3-0.4c0.1-0.1,0.3-0.2,0.4-0.3c0.2-0.1,0.4-0.1,0.5-0.1c0.1,0,0.3,0,0.4,0.1
						c0.1,0,0.2,0.1,0.4,0.2V1.5H25.3z M23.9,4.1c0.1,0,0.2,0,0.3-0.1c0.1,0,0.2-0.1,0.2-0.2c0.1-0.1,0.1-0.1,0.2-0.2
						c0-0.1,0.1-0.2,0.1-0.3c0-0.1,0-0.2-0.1-0.3c0-0.1-0.1-0.2-0.2-0.2c-0.1-0.1-0.1-0.1-0.2-0.2c-0.1,0-0.2-0.1-0.3-0.1
						c-0.1,0-0.2,0-0.3,0.1c-0.1,0-0.2,0.1-0.2,0.2c-0.1,0.1-0.1,0.1-0.2,0.2c0,0.1-0.1,0.2-0.1,0.3c0,0.1,0,0.2,0.1,0.3
						c0,0.1,0.1,0.2,0.2,0.2C23.5,3.9,23.6,4,23.6,4C23.7,4,23.8,4.1,23.9,4.1z"/>
					<path class="st7" d="M27.9,4.1l-0.4,0.6h-1.3h-0.7l1.3-2.1h-1.2l0.4-0.7h1.2h0.7h0l-1.3,2.1H27.9z"/>
				</g>
			</g>
			<g>
				<g>
					<path class="st9" d="M8.3,6.1c0,0-0.1,0-0.1,0C8,6.1,8,6.1,7.9,6.2L7.7,7H7.5l0.2-1.2l0.3,0l0,0.1C8,5.9,8.1,5.8,8.2,5.8
						c0,0,0.1,0,0.1,0L8.3,6.1z"/>
					<path class="st9" d="M8.8,7.1C8.7,7.1,8.6,7,8.5,7C8.4,6.9,8.4,6.9,8.4,6.8c0-0.1-0.1-0.2,0-0.3l0,0c0-0.1,0-0.2,0.1-0.3
						C8.5,6,8.6,5.9,8.6,5.9s0.2-0.1,0.3-0.1c0.2,0,0.3,0.1,0.3,0.2c0.1,0.1,0.1,0.3,0.1,0.4l0,0.1H8.6c0,0.1,0,0.2,0.1,0.2
						c0,0.1,0.1,0.1,0.2,0.1c0.1,0,0.2,0,0.3-0.1l0.1,0.1C9.2,6.9,9.2,7,9.1,7C9,7,8.9,7.1,8.8,7.1z M8.9,6C8.8,6,8.7,6.1,8.6,6.3
						l0.5,0l0,0c0,0,0-0.1,0-0.1c0-0.1,0-0.1-0.1-0.1C9,6,9,6,8.9,6z"/>
					<path class="st9" d="M10.1,6.5H9.5l0-0.2h0.6L10.1,6.5z"/>
					<path class="st9" d="M11.4,6.4c0,0.1,0,0.2-0.1,0.3c-0.1,0.1-0.1,0.2-0.2,0.2c-0.1,0-0.2,0.1-0.3,0.1c-0.1,0-0.2-0.1-0.3-0.2
						l0,0.1h-0.2l0.3-1.7h0.3l-0.1,0.6c0.1-0.1,0.2-0.1,0.3-0.1c0.1,0,0.2,0,0.3,0.1c0.1,0.1,0.1,0.2,0.1,0.3
						C11.4,6.3,11.4,6.4,11.4,6.4z M11.1,6.3c0-0.1,0-0.1-0.1-0.2C11,6.1,11,6,10.9,6c-0.1,0-0.2,0-0.3,0.2l-0.1,0.5
						c0,0.1,0.1,0.2,0.2,0.2c0.1,0,0.2,0,0.2-0.1c0.1-0.1,0.1-0.2,0.1-0.3C11.1,6.4,11.1,6.3,11.1,6.3z"/>
					<path class="st9" d="M12.3,6.1c0,0-0.1,0-0.1,0c-0.1,0-0.2,0-0.3,0.1L11.8,7h-0.3l0.2-1.2l0.3,0l0,0.1c0.1-0.1,0.2-0.2,0.3-0.2
						c0,0,0.1,0,0.1,0L12.3,6.1z"/>
					<path class="st9" d="M13,7c0,0,0-0.1,0-0.1c-0.1,0.1-0.2,0.1-0.3,0.1c-0.1,0-0.2,0-0.3-0.1c-0.1-0.1-0.1-0.1-0.1-0.3
						c0-0.1,0.1-0.2,0.2-0.3c0.1-0.1,0.2-0.1,0.4-0.1l0.2,0l0-0.1c0,0,0-0.1,0-0.1C13,6.1,13,6,12.9,6c-0.1,0-0.1,0-0.2,0
						c0,0-0.1,0.1-0.1,0.1l-0.3,0c0-0.1,0-0.1,0.1-0.2c0-0.1,0.1-0.1,0.2-0.1c0.1,0,0.2,0,0.3,0c0.1,0,0.2,0,0.3,0.1
						c0.1,0.1,0.1,0.2,0.1,0.3l-0.1,0.6l0,0.1c0,0,0,0.1,0,0.1l0,0H13z M12.7,6.8c0.1,0,0.1,0,0.2,0c0,0,0.1-0.1,0.1-0.1l0-0.2
						l-0.1,0c-0.1,0-0.2,0-0.2,0.1c-0.1,0-0.1,0.1-0.1,0.2c0,0,0,0.1,0,0.1S12.6,6.8,12.7,6.8z"/>
					<path class="st9" d="M13.9,5.8l0,0.1c0.1-0.1,0.2-0.2,0.4-0.2c0.1,0,0.2,0,0.3,0.1c0.1,0.1,0.1,0.2,0.1,0.3L14.5,7h-0.3
						l0.1-0.8c0,0,0-0.1,0-0.1c0-0.1-0.1-0.1-0.2-0.1c-0.1,0-0.2,0-0.3,0.1L13.7,7h-0.3l0.2-1.2L13.9,5.8z"/>
					<path class="st9" d="M14.8,6.4c0-0.1,0-0.2,0.1-0.3C14.9,6,15,5.9,15.1,5.9c0.1,0,0.2-0.1,0.3-0.1c0.1,0,0.2,0,0.3,0.1l0.1-0.6
						H16L15.7,7h-0.2l0-0.1c-0.1,0.1-0.2,0.2-0.3,0.1c-0.1,0-0.2,0-0.3-0.1c-0.1-0.1-0.1-0.2-0.1-0.3C14.8,6.5,14.8,6.5,14.8,6.4
						L14.8,6.4z M15.1,6.5c0,0.1,0,0.2,0,0.2c0,0.1,0.1,0.1,0.2,0.1c0.1,0,0.2,0,0.3-0.1l0.1-0.5c0-0.1-0.1-0.1-0.2-0.1
						c-0.1,0-0.2,0-0.2,0.1C15.1,6.3,15.1,6.4,15.1,6.5z"/>
					<path class="st9" d="M16.3,7H16l0.2-1.2h0.3L16.3,7z M16.3,5.5c0,0,0-0.1,0-0.1c0,0,0.1,0,0.1,0c0,0,0.1,0,0.1,0s0,0.1,0,0.1
						c0,0,0,0.1,0,0.1s-0.1,0-0.1,0c0,0-0.1,0-0.1,0C16.3,5.6,16.3,5.6,16.3,5.5z"/>
					<path class="st9" d="M17.1,5.8L17,6c0.1-0.1,0.2-0.2,0.4-0.2c0.1,0,0.2,0,0.3,0.1c0.1,0.1,0.1,0.2,0.1,0.3L17.6,7h-0.3l0.1-0.8
						c0,0,0-0.1,0-0.1c0-0.1-0.1-0.1-0.2-0.1c-0.1,0-0.2,0-0.3,0.1L16.9,7h-0.3l0.2-1.2L17.1,5.8z"/>
					<path class="st9" d="M17.9,6.4c0-0.1,0-0.2,0.1-0.3c0.1-0.1,0.1-0.2,0.2-0.2c0.1-0.1,0.2-0.1,0.3-0.1c0.1,0,0.2,0.1,0.3,0.1
						l0-0.1l0.2,0L18.9,7c0,0.2-0.1,0.3-0.2,0.4c-0.1,0.1-0.2,0.1-0.4,0.1c-0.1,0-0.2,0-0.2-0.1c-0.1,0-0.1-0.1-0.2-0.1L18,7.1
						c0.1,0.1,0.2,0.1,0.3,0.2c0.1,0,0.2,0,0.2-0.1c0.1-0.1,0.1-0.1,0.1-0.2l0-0.1c-0.1,0.1-0.2,0.1-0.3,0.1c-0.1,0-0.2,0-0.3-0.1
						s-0.1-0.2-0.1-0.3C17.9,6.5,17.9,6.5,17.9,6.4z M18.2,6.5c0,0,0,0.1,0,0.1c0,0.1,0,0.1,0.1,0.2c0,0,0.1,0.1,0.1,0.1
						c0.1,0,0.2,0,0.3-0.1l0.1-0.5c0-0.1-0.1-0.1-0.2-0.1c-0.1,0-0.2,0-0.2,0.1C18.2,6.2,18.2,6.3,18.2,6.5L18.2,6.5z"/>
					<path class="st9" d="M20.2,6.6l0.4-0.8h0.3l-0.7,1.4c-0.1,0.2-0.2,0.3-0.4,0.3c0,0-0.1,0-0.1,0l0-0.2l0,0c0.1,0,0.1,0,0.2,0
						c0,0,0.1-0.1,0.1-0.1L20,7l-0.2-1.2h0.3L20.2,6.6z"/>
					<path class="st9" d="M20.9,6.4c0-0.1,0-0.2,0.1-0.3s0.1-0.2,0.2-0.2s0.2-0.1,0.3-0.1c0.1,0,0.2,0,0.3,0.1
						c0.1,0.1,0.1,0.1,0.2,0.2c0,0.1,0,0.2,0,0.3c0,0.1,0,0.2-0.1,0.3S21.7,6.9,21.6,7c-0.1,0.1-0.2,0.1-0.3,0.1
						c-0.1,0-0.2,0-0.3-0.1c-0.1-0.1-0.1-0.1-0.2-0.2C20.9,6.7,20.8,6.6,20.9,6.4L20.9,6.4z M21.1,6.6c0,0.1,0,0.1,0.1,0.2
						c0,0,0.1,0.1,0.2,0.1c0.1,0,0.2,0,0.2-0.1c0.1-0.1,0.1-0.2,0.1-0.3l0-0.1c0-0.1,0-0.2-0.1-0.2c0-0.1-0.1-0.1-0.2-0.1
						c-0.1,0-0.2,0.1-0.3,0.2c0,0.1-0.1,0.1-0.1,0.2C21.1,6.5,21.1,6.5,21.1,6.6z"/>
					<path class="st9" d="M22.8,6.9c-0.1,0.1-0.2,0.1-0.3,0.1c-0.1,0-0.1,0-0.2-0.1c-0.1,0-0.1-0.1-0.1-0.2c0-0.1,0-0.1,0-0.2
						l0.1-0.8h0.3l-0.1,0.8c0,0,0,0.1,0,0.1c0,0.1,0.1,0.1,0.1,0.1c0.1,0,0.2,0,0.3-0.1L23,5.8h0.3L23.1,7h-0.3L22.8,6.9z"/>
					<path class="st9" d="M24.1,6.1c0,0-0.1,0-0.1,0c-0.1,0-0.2,0-0.3,0.1L23.6,7h-0.3l0.2-1.2l0.3,0l0,0.1c0.1-0.1,0.2-0.2,0.3-0.2
						c0,0,0.1,0,0.1,0L24.1,6.1z"/>
					<path class="st9" d="M25,7h-0.3l0.2-1.2h0.3L25,7z M25,5.5c0,0,0-0.1,0-0.1c0,0,0.1,0,0.1,0c0,0,0.1,0,0.1,0s0,0.1,0,0.1
						c0,0,0,0.1,0,0.1s-0.1,0-0.1,0c0,0-0.1,0-0.1,0C25,5.6,25,5.6,25,5.5z"/>
					<path class="st9" d="M25.8,5.8l0,0.1c0.1-0.1,0.2-0.2,0.4-0.1c0.1,0,0.1,0,0.2,0.1c0.1,0,0.1,0.1,0.1,0.1
						c0.1-0.1,0.2-0.2,0.4-0.2c0.1,0,0.2,0,0.3,0.1c0.1,0.1,0.1,0.2,0.1,0.3L27,7h-0.3l0.1-0.8c0,0,0-0.1,0-0.1
						c0-0.1-0.1-0.1-0.2-0.1c-0.1,0-0.2,0.1-0.3,0.2l0,0L26.3,7H26l0.1-0.8c0,0,0-0.1,0-0.1C26.1,6.1,26.1,6,26,6
						c-0.1,0-0.2,0-0.3,0.1L25.6,7h-0.3l0.2-1.2L25.8,5.8z"/>
					<path class="st9" d="M28,7c0,0,0-0.1,0-0.1c-0.1,0.1-0.2,0.1-0.3,0.1c-0.1,0-0.2,0-0.3-0.1c-0.1-0.1-0.1-0.1-0.1-0.3
						c0-0.1,0.1-0.2,0.2-0.3c0.1-0.1,0.2-0.1,0.4-0.1l0.2,0l0-0.1c0,0,0-0.1,0-0.1C28.1,6.1,28,6,27.9,6c-0.1,0-0.1,0-0.2,0
						c0,0-0.1,0.1-0.1,0.1l-0.3,0c0-0.1,0-0.1,0.1-0.2c0-0.1,0.1-0.1,0.2-0.1c0.1,0,0.2,0,0.3,0c0.1,0,0.2,0,0.3,0.1
						c0.1,0.1,0.1,0.2,0.1,0.3l-0.1,0.6l0,0.1c0,0,0,0.1,0,0.1l0,0H28z M27.7,6.8c0.1,0,0.1,0,0.2,0c0,0,0.1-0.1,0.1-0.1l0-0.2
						l-0.1,0c-0.1,0-0.2,0-0.2,0.1c-0.1,0-0.1,0.1-0.1,0.2c0,0,0,0.1,0,0.1S27.7,6.8,27.7,6.8z"/>
					<path class="st9" d="M28.5,6.4c0-0.1,0-0.2,0.1-0.3c0.1-0.1,0.1-0.2,0.2-0.2c0.1-0.1,0.2-0.1,0.3-0.1c0.1,0,0.2,0.1,0.3,0.1
						l0-0.1l0.2,0L29.5,7c0,0.2-0.1,0.3-0.2,0.4c-0.1,0.1-0.2,0.1-0.4,0.1c-0.1,0-0.2,0-0.2-0.1c-0.1,0-0.1-0.1-0.2-0.1l0.1-0.2
						c0.1,0.1,0.2,0.1,0.3,0.2c0.1,0,0.2,0,0.2-0.1c0.1-0.1,0.1-0.1,0.1-0.2l0-0.1C29.2,7,29,7.1,28.9,7.1c-0.1,0-0.2,0-0.3-0.1
						s-0.1-0.2-0.1-0.3C28.5,6.5,28.5,6.5,28.5,6.4z M28.8,6.5c0,0,0,0.1,0,0.1c0,0.1,0,0.1,0.1,0.2c0,0,0.1,0.1,0.1,0.1
						c0.1,0,0.2,0,0.3-0.1l0.1-0.5c0-0.1-0.1-0.1-0.2-0.1c-0.1,0-0.2,0-0.2,0.1C28.9,6.2,28.8,6.3,28.8,6.5L28.8,6.5z"/>
					<path class="st9" d="M30.1,7h-0.3L30,5.8h0.3L30.1,7z M30,5.5c0,0,0-0.1,0-0.1c0,0,0.1,0,0.1,0c0,0,0.1,0,0.1,0
						c0,0,0,0.1,0,0.1c0,0,0,0.1,0,0.1s-0.1,0-0.1,0c0,0-0.1,0-0.1,0C30.1,5.6,30,5.6,30,5.5z"/>
					<path class="st9" d="M30.8,5.8l0,0.1c0.1-0.1,0.2-0.2,0.4-0.2c0.1,0,0.2,0,0.3,0.1c0.1,0.1,0.1,0.2,0.1,0.3L31.3,7h-0.3
						l0.1-0.8c0,0,0-0.1,0-0.1C31.2,6.1,31.1,6,31,6c-0.1,0-0.2,0-0.3,0.1L30.6,7h-0.3l0.2-1.2L30.8,5.8z"/>
					<path class="st9" d="M32.3,7c0,0,0-0.1,0-0.1C32.2,7,32.1,7.1,32,7.1c-0.1,0-0.2,0-0.3-0.1c-0.1-0.1-0.1-0.1-0.1-0.3
						c0-0.1,0.1-0.2,0.2-0.3c0.1-0.1,0.2-0.1,0.4-0.1l0.2,0l0-0.1c0,0,0-0.1,0-0.1c0-0.1-0.1-0.1-0.2-0.1c-0.1,0-0.1,0-0.2,0
						c0,0-0.1,0.1-0.1,0.1l-0.3,0c0-0.1,0-0.1,0.1-0.2c0-0.1,0.1-0.1,0.2-0.1c0.1,0,0.2,0,0.3,0c0.1,0,0.2,0,0.3,0.1
						c0.1,0.1,0.1,0.2,0.1,0.3l-0.1,0.6l0,0.1c0,0,0,0.1,0,0.1l0,0H32.3z M32.1,6.8c0.1,0,0.1,0,0.2,0c0,0,0.1-0.1,0.1-0.1l0-0.2
						l-0.1,0c-0.1,0-0.2,0-0.2,0.1c-0.1,0-0.1,0.1-0.1,0.2c0,0,0,0.1,0,0.1S32,6.8,32.1,6.8z"/>
					<path class="st9" d="M33.4,5.5l-0.1,0.3h0.2l0,0.2h-0.2l-0.1,0.7c0,0,0,0,0,0.1c0,0,0,0.1,0.1,0.1c0,0,0.1,0,0.1,0l0,0.2
						c-0.1,0-0.1,0-0.2,0c-0.1,0-0.2,0-0.2-0.1C33,6.9,33,6.8,33,6.7L33.1,6h-0.2l0-0.2h0.2l0.1-0.3H33.4z"/>
					<path class="st9" d="M33.9,7h-0.3l0.2-1.2h0.3L33.9,7z M33.9,5.5c0,0,0-0.1,0-0.1c0,0,0.1,0,0.1,0c0,0,0.1,0,0.1,0s0,0.1,0,0.1
						c0,0,0,0.1,0,0.1s-0.1,0-0.1,0c0,0-0.1,0-0.1,0C33.9,5.6,33.9,5.6,33.9,5.5z"/>
					<path class="st9" d="M34.2,6.4c0-0.1,0-0.2,0.1-0.3c0.1-0.1,0.1-0.2,0.2-0.2s0.2-0.1,0.3-0.1c0.1,0,0.2,0,0.3,0.1
						c0.1,0.1,0.1,0.1,0.2,0.2c0,0.1,0,0.2,0,0.3c0,0.1,0,0.2-0.1,0.3C35.2,6.9,35.1,6.9,35,7c-0.1,0.1-0.2,0.1-0.3,0.1
						c-0.1,0-0.2,0-0.3-0.1c-0.1-0.1-0.1-0.1-0.2-0.2C34.2,6.7,34.2,6.6,34.2,6.4L34.2,6.4z M34.5,6.6c0,0.1,0,0.1,0.1,0.2
						c0,0,0.1,0.1,0.2,0.1c0.1,0,0.2,0,0.2-0.1c0.1-0.1,0.1-0.2,0.1-0.3l0-0.1c0-0.1,0-0.2-0.1-0.2S34.9,6,34.9,6
						c-0.1,0-0.2,0.1-0.3,0.2c0,0.1-0.1,0.1-0.1,0.2C34.5,6.5,34.5,6.5,34.5,6.6z"/>
					<path class="st9" d="M35.9,5.8l0,0.1c0.1-0.1,0.2-0.2,0.4-0.2c0.1,0,0.2,0,0.3,0.1c0.1,0.1,0.1,0.2,0.1,0.3L36.4,7h-0.3
						l0.1-0.8c0,0,0-0.1,0-0.1c0-0.1-0.1-0.1-0.2-0.1c-0.1,0-0.2,0-0.3,0.1L35.7,7h-0.3l0.2-1.2L35.9,5.8z"/>
					<path class="st9" d="M38,7c0,0,0-0.1,0-0.1c-0.1,0.1-0.2,0.1-0.3,0.1c-0.1,0-0.2,0-0.3-0.1c-0.1-0.1-0.1-0.1-0.1-0.3
						c0-0.1,0.1-0.2,0.2-0.3c0.1-0.1,0.2-0.1,0.4-0.1l0.2,0l0-0.1c0,0,0-0.1,0-0.1C38.1,6.1,38,6,37.9,6c-0.1,0-0.1,0-0.2,0
						c0,0-0.1,0.1-0.1,0.1l-0.3,0c0-0.1,0-0.1,0.1-0.2c0-0.1,0.1-0.1,0.2-0.1c0.1,0,0.2,0,0.3,0c0.1,0,0.2,0,0.3,0.1
						c0.1,0.1,0.1,0.2,0.1,0.3l-0.1,0.6l0,0.1c0,0,0,0.1,0,0.1l0,0H38z M37.7,6.8c0.1,0,0.1,0,0.2,0c0,0,0.1-0.1,0.1-0.1l0-0.2
						l-0.1,0c-0.1,0-0.2,0-0.2,0.1c-0.1,0-0.1,0.1-0.1,0.2c0,0,0,0.1,0,0.1S37.7,6.8,37.7,6.8z"/>
					<path class="st9" d="M39,5.8L39,6c0.1-0.1,0.2-0.2,0.4-0.2c0.1,0,0.2,0,0.3,0.1c0.1,0.1,0.1,0.2,0.1,0.3L39.5,7h-0.3l0.1-0.8
						c0,0,0-0.1,0-0.1c0-0.1-0.1-0.1-0.2-0.1c-0.1,0-0.2,0-0.3,0.1L38.8,7h-0.3l0.2-1.2L39,5.8z"/>
					<path class="st9" d="M39.8,6.4c0-0.1,0-0.2,0.1-0.3s0.1-0.2,0.2-0.2c0.1,0,0.2-0.1,0.3-0.1c0.1,0,0.2,0,0.3,0.1l0.1-0.6h0.3
						L40.8,7h-0.2l0-0.1c-0.1,0.1-0.2,0.2-0.3,0.1c-0.1,0-0.2,0-0.3-0.1c-0.1-0.1-0.1-0.2-0.1-0.3C39.8,6.5,39.8,6.5,39.8,6.4
						L39.8,6.4z M40.1,6.5c0,0.1,0,0.2,0,0.2c0,0.1,0.1,0.1,0.2,0.1c0.1,0,0.2,0,0.3-0.1l0.1-0.5c0-0.1-0.1-0.1-0.2-0.1
						c-0.1,0-0.2,0-0.2,0.1C40.1,6.3,40.1,6.4,40.1,6.5z"/>
					<path class="st9" d="M42.2,6.8c0.1,0,0.1,0,0.2-0.1c0,0,0.1-0.1,0.1-0.2l0.3,0c0,0.1,0,0.2-0.1,0.2C42.5,6.9,42.5,7,42.4,7
						c-0.1,0-0.2,0.1-0.2,0.1c-0.1,0-0.2,0-0.3-0.1c-0.1-0.1-0.1-0.1-0.2-0.2c0-0.1,0-0.2,0-0.3l0,0c0-0.1,0-0.2,0.1-0.3
						C41.9,6,41.9,5.9,42,5.9c0.1-0.1,0.2-0.1,0.3-0.1c0.1,0,0.2,0,0.3,0.1c0.1,0.1,0.1,0.2,0.1,0.3h-0.3c0-0.1,0-0.1-0.1-0.2
						c0,0-0.1-0.1-0.1-0.1c-0.1,0-0.2,0-0.2,0.1C42,6.2,42,6.4,42,6.5C41.9,6.7,42,6.8,42.2,6.8z"/>
					<path class="st9" d="M43.6,6.1c0,0-0.1,0-0.1,0c-0.1,0-0.2,0-0.3,0.1L43.1,7h-0.3L43,5.8l0.3,0l0,0.1c0.1-0.1,0.2-0.2,0.3-0.2
						c0,0,0.1,0,0.1,0L43.6,6.1z"/>
					<path class="st9" d="M44.1,7.1C44,7.1,44,7,43.9,7c-0.1-0.1-0.1-0.1-0.2-0.2s-0.1-0.2,0-0.3l0,0c0-0.1,0-0.2,0.1-0.3
						C43.8,6,43.9,5.9,44,5.9c0.1-0.1,0.2-0.1,0.3-0.1c0.2,0,0.3,0.1,0.3,0.2c0.1,0.1,0.1,0.3,0.1,0.4l0,0.1h-0.8
						c0,0.1,0,0.2,0.1,0.2c0,0.1,0.1,0.1,0.2,0.1c0.1,0,0.2,0,0.3-0.1l0.1,0.1C44.6,6.9,44.5,7,44.4,7C44.3,7,44.2,7.1,44.1,7.1z
						 M44.3,6c-0.1,0-0.2,0.1-0.3,0.3l0.5,0l0,0c0,0,0-0.1,0-0.1c0-0.1,0-0.1-0.1-0.1C44.4,6,44.3,6,44.3,6z"/>
					<path class="st9" d="M45.5,7c0,0,0-0.1,0-0.1c-0.1,0.1-0.2,0.1-0.3,0.1c-0.1,0-0.2,0-0.3-0.1c-0.1-0.1-0.1-0.1-0.1-0.3
						c0-0.1,0.1-0.2,0.2-0.3c0.1-0.1,0.2-0.1,0.4-0.1l0.2,0l0-0.1c0,0,0-0.1,0-0.1c0-0.1-0.1-0.1-0.2-0.1c-0.1,0-0.1,0-0.2,0
						c0,0-0.1,0.1-0.1,0.1l-0.3,0C45,6.1,45,6,45,6s0.1-0.1,0.2-0.1c0.1,0,0.2,0,0.3,0c0.1,0,0.2,0,0.3,0.1c0.1,0.1,0.1,0.2,0.1,0.3
						l-0.1,0.6l0,0.1c0,0,0,0.1,0,0.1l0,0H45.5z M45.3,6.8c0.1,0,0.1,0,0.2,0c0,0,0.1-0.1,0.1-0.1l0-0.2l-0.1,0
						c-0.1,0-0.2,0-0.2,0.1c-0.1,0-0.1,0.1-0.1,0.2c0,0,0,0.1,0,0.1S45.2,6.8,45.3,6.8z"/>
					<path class="st9" d="M46.6,5.5l-0.1,0.3h0.2l0,0.2h-0.2l-0.1,0.7c0,0,0,0,0,0.1c0,0,0,0.1,0.1,0.1c0,0,0.1,0,0.1,0l0,0.2
						c-0.1,0-0.1,0-0.2,0c-0.1,0-0.2,0-0.2-0.1c0-0.1-0.1-0.1-0.1-0.2L46.3,6h-0.2l0-0.2h0.2l0.1-0.3H46.6z"/>
					<path class="st9" d="M47.1,7h-0.3L47,5.8h0.3L47.1,7z M47.1,5.5c0,0,0-0.1,0-0.1c0,0,0.1,0,0.1,0c0,0,0.1,0,0.1,0s0,0.1,0,0.1
						c0,0,0,0.1,0,0.1s-0.1,0-0.1,0c0,0-0.1,0-0.1,0C47.1,5.6,47.1,5.6,47.1,5.5z"/>
					<path class="st9" d="M47.9,6.7l0.4-0.9h0.3L47.9,7h-0.2l-0.2-1.2h0.3L47.9,6.7z"/>
					<path class="st9" d="M48.8,7h-0.3l0.2-1.2H49L48.8,7z M48.8,5.5c0,0,0-0.1,0-0.1c0,0,0.1,0,0.1,0c0,0,0.1,0,0.1,0s0,0.1,0,0.1
						c0,0,0,0.1,0,0.1c0,0-0.1,0-0.1,0c0,0-0.1,0-0.1,0C48.8,5.6,48.8,5.6,48.8,5.5z"/>
					<path class="st9" d="M49.7,5.5l-0.1,0.3h0.2l0,0.2h-0.2l-0.1,0.7c0,0,0,0,0,0.1c0,0,0,0.1,0.1,0.1c0,0,0.1,0,0.1,0l0,0.2
						c-0.1,0-0.1,0-0.2,0c-0.1,0-0.2,0-0.2-0.1c0-0.1-0.1-0.1-0.1-0.2L49.3,6h-0.2l0-0.2h0.2l0.1-0.3H49.7z"/>
					<path class="st9" d="M50.3,6.6l0.4-0.8H51l-0.7,1.4c-0.1,0.2-0.2,0.3-0.4,0.3c0,0-0.1,0-0.1,0l0-0.2l0,0c0.1,0,0.1,0,0.2,0
						c0,0,0.1-0.1,0.1-0.1L50.1,7l-0.2-1.2h0.3L50.3,6.6z"/>
				</g>
			</g>
		</g>
	</g>
</g>
</svg>
