<?xml version="1.0" encoding="utf-8"?>
<!-- Generator: Adobe Illustrator 25.4.1, SVG Export Plug-In . SVG Version: 6.00 Build 0)  -->
<svg version="1.1" id="Layer_1" xmlns="http://www.w3.org/2000/svg" xmlns:xlink="http://www.w3.org/1999/xlink" x="0px" y="0px"
	 viewBox="0 0 24 12" style="enable-background:new 0 0 24 12;" xml:space="preserve">
<style type="text/css">
	.st0{fill-rule:evenodd;clip-rule:evenodd;fill:#EE2E71;}
	.st1{fill-rule:evenodd;clip-rule:evenodd;fill:none;}
</style>
<g>
	<path class="st0" d="M1.9,4.3C0.3,8.2,6.8,6.1,22.2,1.9c0.3,0,0.6,0,0.2,0.3c-2.6,2.5-3.6,5.4-4.6,8.1c0.1-1.4,0.1-2.5,1.3-5.8
		C2.4,8.8,0.1,7.1,1.9,4.3z"/>
	<g>
		<path class="st0" d="M2.1,5.5c1.4,1,9.1-2.2,13.5-4c0.2-0.1,0.5-0.1,0.7,0.1c0.3,0.3,0.6,0.7,0.9,1C8.5,5.5,2.8,6.7,2.1,5.5
			L2.1,5.5z M15.9,1.7c0,0-0.1,0-0.1,0c0,0,0,0,0,0l-0.2,0.1c-2.4,1-5.9,2.4-8.7,3.3c2.5-0.5,5.8-1.4,9.7-2.7l-0.1-0.1
			C16.3,2.2,16.2,2,16,1.8l0,0C16,1.8,16,1.8,15.9,1.7z"/>
	</g>
	<path class="st0" d="M12,1.3c0.3-0.1,0.5-0.1,0.6,0.1c0.2,0.2,0.4,0.4,0.6,0.6C7.6,4.2,4.6,5.1,3.1,5.2C6,3.9,9,2.6,12,1.3z"/>
	<path class="st0" d="M1.8,8H1.5L1.4,7.5h1.2L2.7,8H2.3v1.4H1.8V8L1.8,8z M3.2,8.4c0.1,0,0.1,0,0.2,0c0,0,0.1,0,0.1-0.1
		c0,0,0-0.1,0-0.2c0-0.1,0-0.2-0.1-0.2c-0.1,0-0.1-0.1-0.3-0.1V8.4L3.2,8.4z M2.8,9.4V7.5h0.5c0.1,0,0.3,0,0.4,0.1
		c0.1,0,0.2,0.1,0.3,0.2C4,7.9,4,8,4,8.1c0,0.1,0,0.2-0.1,0.3C3.9,8.5,3.8,8.5,3.7,8.6l0.5,0.8H3.7L3.2,8.5h0v0.8H2.8L2.8,9.4z
		 M5.1,8.7l0.2-0.3l0.2,0.3H5.1L5.1,8.7z M5.8,9.4h0.5l-1-1.8l-1,1.8h0.5L4.9,9h0.7L5.8,9.4L5.8,9.4z M7.9,9.4L6.8,8.4l0,0.9H6.3
		V7.5l1.2,0.9V7.5l0.4,0V9.4L7.9,9.4z M8.9,8C8.9,8,8.8,7.9,8.8,7.9c0,0-0.1,0-0.1,0c0,0-0.1,0-0.1,0c0,0-0.1,0.1-0.1,0.1
		c0,0.1,0,0.1,0.1,0.1c0.1,0,0.2,0.1,0.3,0.1c0.1,0,0.2,0.1,0.2,0.2c0.1,0.1,0.1,0.2,0.1,0.3C9.2,9,9.1,9.1,9,9.2
		C8.9,9.4,8.7,9.4,8.5,9.4c-0.1,0-0.2,0-0.3-0.1C8.1,9.3,8.1,9.3,8,9.2l0.2-0.3C8.3,8.9,8.4,9,8.5,9c0.1,0,0.1,0,0.1,0
		c0,0,0.1-0.1,0.1-0.1c0-0.1,0-0.1-0.1-0.1c0,0-0.1,0-0.1-0.1l-0.1,0l-0.1,0c-0.1,0-0.2-0.1-0.2-0.2C8.1,8.3,8,8.2,8,8.1
		c0-0.1,0-0.2,0.1-0.3c0.1-0.1,0.1-0.1,0.2-0.2c0.1,0,0.2-0.1,0.3-0.1c0.1,0,0.2,0,0.3,0.1c0.1,0,0.2,0.1,0.2,0.2L8.9,8L8.9,8z
		 M10.8,9.4L9.7,8.4l0,0.9H9.2V7.5l1.2,0.9V7.5l0.4,0V9.4L10.8,9.4z M11,7.5h0.4v1.8l-0.4,0V7.5L11,7.5z M12.3,8.7l0.2-0.3l0.2,0.3
		H12.3L12.3,8.7z M13,9.4h0.5l-1-1.8l-1,1.8h0.5L12.1,9h0.7L13,9.4L13,9.4z M14.7,8.1C14.7,8,14.6,8,14.5,8c-0.1,0-0.1,0-0.2,0
		c-0.1,0-0.1,0-0.2,0C14,8,13.9,8,13.9,8.1c0,0-0.1,0.1-0.1,0.2c0,0.1,0,0.1,0,0.2c0,0.1,0,0.2,0.1,0.3c0.1,0.1,0.1,0.1,0.2,0.2
		C14.1,9,14.2,9,14.3,9c0,0,0.1,0,0.1,0c0.1,0,0.1,0,0.1-0.1V8.7h-0.2l-0.2-0.4H15v0.9c0,0-0.1,0-0.2,0.1c-0.1,0-0.1,0-0.2,0.1
		c-0.1,0-0.1,0-0.2,0c-0.1,0-0.1,0-0.2,0c-0.2,0-0.3,0-0.5-0.1c-0.1-0.1-0.3-0.2-0.4-0.3c-0.1-0.1-0.1-0.3-0.1-0.5
		c0-0.2,0-0.3,0.1-0.5c0.1-0.1,0.2-0.3,0.4-0.3c0.1-0.1,0.3-0.1,0.5-0.1c0.1,0,0.2,0,0.3,0c0.1,0,0.2,0,0.2,0.1
		c0.1,0,0.1,0.1,0.2,0.1L14.7,8.1L14.7,8.1z M15.9,8.7l0.2-0.3l0.2,0.3H15.9L15.9,8.7z M16.6,9.4h0.5l-1-1.8l-1,1.8h0.5L15.7,9h0.7
		L16.6,9.4z"/>
	<g>
		<path class="st0" d="M2,10.5c0,0,0-0.1,0-0.1c0,0-0.1-0.1-0.2-0.1c-0.1,0-0.1-0.1-0.2-0.1C1.5,10.1,1.4,10,1.4,9.9
			c0-0.1,0-0.1,0.1-0.2c0,0,0.1-0.1,0.2-0.1c0.1,0,0.1,0,0.2,0c0.1,0,0.2,0,0.2,0c0.1,0,0.1,0.1,0.2,0.1c0,0.1,0.1,0.1,0.1,0.2H2
			C2,9.9,2,9.8,2,9.8c0,0-0.1,0-0.1,0c-0.1,0-0.1,0-0.1,0c0,0,0,0.1,0,0.1c0,0,0,0.1,0.1,0.1c0,0,0.1,0,0.2,0.1
			c0.1,0,0.2,0.1,0.3,0.2c0.1,0.1,0.1,0.1,0.1,0.2c0,0.1,0,0.2-0.1,0.2c-0.1,0.1-0.2,0.1-0.3,0.1c-0.1,0-0.2,0-0.2,0
			c-0.1,0-0.1-0.1-0.2-0.1c0-0.1-0.1-0.1-0.1-0.2h0.2c0,0.1,0.1,0.2,0.2,0.2C1.9,10.6,2,10.6,2,10.5C2,10.5,2,10.5,2,10.5z"/>
		<path class="st0" d="M3.3,10.7c-0.1,0.1-0.1,0.1-0.2,0.1c-0.1,0-0.2,0-0.2-0.1c0-0.1-0.1-0.1-0.1-0.2V9.9H3v0.6
			c0,0.1,0,0.1,0.1,0.1c0.1,0,0.1,0,0.2-0.1V9.9h0.2v0.9L3.3,10.7L3.3,10.7z"/>
		<polygon class="st0" points="4.3,10.4 4.2,10.5 4.2,10.8 4,10.8 4,9.5 4.2,9.5 4.2,10.2 4.3,10.2 4.5,9.9 4.8,9.9 4.5,10.3 
			4.8,10.8 4.6,10.8 		"/>
		<path class="st0" d="M5.7,10.5C5.7,10.5,5.7,10.5,5.7,10.5c-0.1-0.1-0.1-0.1-0.2-0.1c-0.2,0-0.3-0.1-0.3-0.3c0-0.1,0-0.1,0.1-0.2
			c0.1-0.1,0.1-0.1,0.3-0.1c0.1,0,0.2,0,0.3,0.1c0.1,0.1,0.1,0.1,0.1,0.2H5.7c0,0,0-0.1,0-0.1c0,0-0.1,0-0.1,0c0,0-0.1,0-0.1,0
			c0,0,0,0,0,0.1c0,0,0,0,0,0.1c0,0,0.1,0,0.1,0c0.1,0,0.1,0,0.1,0c0.1,0,0.2,0.1,0.2,0.2c0,0.1,0,0.1-0.1,0.2
			c-0.1,0-0.2,0.1-0.3,0.1c-0.1,0-0.1,0-0.2,0c-0.1,0-0.1-0.1-0.1-0.1c0,0,0-0.1,0-0.1h0.2c0,0,0,0.1,0,0.1c0,0,0.1,0,0.1,0
			C5.6,10.6,5.6,10.6,5.7,10.5C5.7,10.6,5.7,10.6,5.7,10.5z"/>
		<path class="st0" d="M6.8,10.8c-0.1,0-0.2,0-0.3-0.1c-0.1-0.1-0.1-0.2-0.1-0.3v0c0-0.1,0-0.2,0.1-0.2c0-0.1,0.1-0.1,0.1-0.2
			c0.1,0,0.1-0.1,0.2-0.1c0.1,0,0.2,0,0.3,0.1c0.1,0.1,0.1,0.2,0.1,0.3v0.1H6.6c0,0.1,0,0.1,0.1,0.1c0,0,0.1,0.1,0.1,0.1
			c0.1,0,0.2,0,0.2-0.1l0.1,0.1c0,0-0.1,0.1-0.1,0.1C6.9,10.8,6.9,10.8,6.8,10.8L6.8,10.8z M6.8,10.1L6.8,10.1c0,0-0.1,0-0.1,0
			c0,0,0,0.1-0.1,0.1h0.3v0c0-0.1,0-0.1,0-0.1C6.9,10.1,6.8,10.1,6.8,10.1z"/>
		<path class="st0" d="M8.1,10.5C8.1,10.5,8.1,10.5,8.1,10.5C8,10.4,8,10.4,7.9,10.4c-0.2,0-0.3-0.1-0.3-0.3c0-0.1,0-0.1,0.1-0.2
			c0.1-0.1,0.1-0.1,0.3-0.1c0.1,0,0.2,0,0.3,0.1c0.1,0.1,0.1,0.1,0.1,0.2H8.1c0,0,0-0.1,0-0.1c0,0-0.1,0-0.1,0c0,0-0.1,0-0.1,0
			c0,0,0,0,0,0.1c0,0,0,0,0,0.1c0,0,0.1,0,0.1,0c0.1,0,0.1,0,0.1,0c0.1,0,0.2,0.1,0.2,0.2c0,0.1,0,0.1-0.1,0.2
			c-0.1,0-0.2,0.1-0.3,0.1c-0.1,0-0.1,0-0.2,0c-0.1,0-0.1-0.1-0.1-0.1c0,0,0-0.1,0-0.1h0.2c0,0,0,0.1,0,0.1c0,0,0.1,0,0.1,0
			C8,10.6,8,10.6,8.1,10.5C8.1,10.6,8.1,10.6,8.1,10.5z"/>
		<polygon class="st0" points="9.9,9.6 10.2,10.4 10.5,9.6 10.8,9.6 10.8,10.8 10.5,10.8 10.5,10.4 10.6,9.9 10.2,10.8 10.1,10.8 
			9.8,9.9 9.8,10.4 9.8,10.8 9.5,10.8 9.5,9.6 		"/>
		<path class="st0" d="M11.8,10.8C11.8,10.7,11.8,10.7,11.8,10.8c-0.1,0-0.2,0-0.2,0c-0.1,0-0.2,0-0.2-0.1c-0.1,0-0.1-0.1-0.1-0.2
			c0-0.1,0-0.2,0.1-0.2c0.1,0,0.2-0.1,0.3-0.1h0.1v0c0,0,0-0.1,0-0.1c0,0-0.1,0-0.1,0c0,0-0.1,0-0.1,0c0,0,0,0,0,0.1h-0.2
			c0-0.1,0-0.1,0-0.1c0,0,0.1-0.1,0.1-0.1c0.1,0,0.1,0,0.2,0c0.1,0,0.2,0,0.3,0.1C12,10,12,10.1,12,10.2v0.4c0,0.1,0,0.1,0,0.2v0
			H11.8L11.8,10.8z M11.6,10.6L11.6,10.6C11.7,10.6,11.7,10.6,11.6,10.6c0.1,0,0.1-0.1,0.2-0.1v-0.1h-0.1c-0.1,0-0.2,0-0.2,0.1l0,0
			C11.5,10.5,11.5,10.6,11.6,10.6C11.6,10.6,11.6,10.6,11.6,10.6z"/>
		<polygon class="st0" points="12.8,10.4 12.7,10.5 12.7,10.8 12.5,10.8 12.5,9.5 12.7,9.5 12.7,10.2 12.8,10.2 13,9.9 13.3,9.9 
			13,10.3 13.3,10.8 13.1,10.8 		"/>
		<path class="st0" d="M13.9,9.9L13.9,9.9c0.1,0,0.2,0,0.3,0c0.1,0,0.2,0,0.2,0.1c0.1-0.1,0.1-0.1,0.3-0.1c0.1,0,0.2,0,0.2,0.1
			c0,0.1,0.1,0.1,0.1,0.2v0.6h-0.2v-0.6c0,0,0-0.1,0-0.1c0,0-0.1,0-0.1,0c-0.1,0-0.1,0-0.1,0.1l0,0.6h-0.2v-0.6c0-0.1,0-0.1,0-0.1
			c0,0-0.1,0-0.1,0c-0.1,0-0.1,0-0.1,0.1v0.6h-0.2V9.9H13.9z"/>
		<path class="st0" d="M16,10.7c-0.1,0.1-0.1,0.1-0.2,0.1c-0.1,0-0.2,0-0.2-0.1c0-0.1-0.1-0.1-0.1-0.2V9.9h0.2v0.6
			c0,0.1,0,0.1,0.1,0.1c0.1,0,0.1,0,0.2-0.1V9.9h0.2v0.9L16,10.7L16,10.7z"/>
		<path class="st0" d="M17.2,10.1C17.2,10.1,17.2,10.1,17.2,10.1c-0.2,0-0.2,0-0.3,0.1v0.6h-0.2V9.9H17l0,0.1c0-0.1,0.1-0.1,0.2-0.1
			c0,0,0,0,0.1,0L17.2,10.1z"/>
	</g>
</g>
<rect x="0" class="st1" width="24" height="12"/>
</svg>
